<?xml version="1.0" encoding="UTF-8"?>
<svg id="Calque_2" data-name="Calque 2" xmlns="http://www.w3.org/2000/svg" xmlns:xlink="http://www.w3.org/1999/xlink" viewBox="0 0 474.31 474.31">
  <defs>
    <style>
      .cls-1 {
        fill: url(#Dégradé_sans_nom_111-2);
      }

      .cls-2 {
        fill: #fff;
      }

      .cls-3 {
        fill: url(#Dégradé_sans_nom_111);
      }
    </style>
    <linearGradient id="Dégradé_sans_nom_111" data-name="Dégradé sans nom 111" x1="237.16" y1="0" x2="237.16" y2="474.31" gradientUnits="userSpaceOnUse">
      <stop offset="0" stop-color="#dedc00"/>
      <stop offset=".21" stop-color="#dbdb00"/>
      <stop offset=".37" stop-color="#d1d804"/>
      <stop offset=".52" stop-color="#c1d309"/>
      <stop offset=".65" stop-color="#ac1"/>
      <stop offset=".77" stop-color="#8dc31a"/>
      <stop offset=".89" stop-color="#6ab826"/>
      <stop offset="1" stop-color="#40ab35"/>
    </linearGradient>
    <linearGradient id="Dégradé_sans_nom_111-2" data-name="Dégradé sans nom 111" x1="140.31" y1="124.51" x2="381.49" y2="124.51" xlink:href="#Dégradé_sans_nom_111"/>
  </defs>
  <g id="Calque_2-2" data-name="Calque 2">
    <g>
      <circle class="cls-3" cx="237.16" cy="237.16" r="237.16"/>
      <path class="cls-2" d="M18.33,230.17C20.1,123.72,102.77,24.33,228.4,17.94c126.82-2.89,224.21,96.72,226.94,211.93-25.18.96-24.15,16.56-41.37,18.4-16.12.44-18.11-16.64-44.69-18.7-28.79,1.33-26.65,17.37-44.76,18.4-16.79-.88-18.04-16.79-42.63-18.55-25.91.29-27.75,18.7-44.73,18.59-16.74-.48-18.66-17.26-44.42-18.88-30.18,2.34-24.37,18.04-44.02,19.21-17.96-2.06-17.45-17.01-44.1-18.85-30.33,2.43-24.81,17.08-44.54,18.85-19.88-1.77-12.52-17.6-41.74-18.18Z"/>
      <path class="cls-2" d="M376.05,327.57s-18.4-5.45-22.38-6.33c-3.98-11.04-16.79-40.93-67.44,0-7.36-2.94-58.9-24-114.26-57.28,6.04,30.92,29.6,51.98,44.61,68.32-4.12,2.06-14.87,2.5-18.11,2.06,4.56,5.6,12.96,11.63,25.91,11.63.59,3.53-18.55,8.25-19.88,8.54,3.68,4.42,15.46,9.28,24.74,11.63,6.04,1.91-72,42.85-84.52,49.47,11.19-.44,158.72,22.09,178.75-63.46.74-.74,7.36-18.11,52.56-24.59Z"/>
      <path class="cls-1" d="M323.04,115.55c-8.91-6.56-46.82-89.08-133.84-44.17-1.62-4.27-1.03-10.31,6.63-22.97-4.71,2.94-53.15,29.74-35.48,50.5-4.42,5.89-34.16,47.12-11.78,100.86,23.26,3.98,56.54-4.42,79.36-58.01,2.21,2.06,2.94,2.94,2.94,2.94l25.18-14.43s-8.25-6.04-8.39-6.18c3.53-2.65,30.77-16.2,65.37-.88-2.5,9.72-13.4,44.76,25.33,72.15.88-3.53,9.42-34.6,9.42-34.6,0,0,33.57,1.33,33.72,1.33-1.47-9.57-9.54-44.55-58.45-46.53Z"/>
    </g>
  </g>
</svg>